<svg width="35" height="33" viewBox="0 0 35 33" fill="none" xmlns="http://www.w3.org/2000/svg">
<path fill-rule="evenodd" clip-rule="evenodd" d="M28 3.875C31.866 3.875 35 7.009 35 10.875C35 13.78 33.23 16.271 30.711 17.33C30.895 17.981 31 18.665 31 19.375C31 23.518 27.643 26.875 23.5 26.875C21.323 26.875 19.37 25.942 18 24.462C16.63 25.942 14.676 26.875 12.5 26.875C8.498 26.875 5.237 23.737 5.021 19.788C2.174 19.32 0 16.854 0 13.875C0 11.03 1.982 8.653 4.64 8.036C6.088 3.38 10.431 0 15.563 0C19.343 0 22.686 1.842 24.768 4.669C25.735 4.165 26.833 3.875 28 3.875ZM7 29.875C7 31.5319 5.65685 32.875 4 32.875C2.34315 32.875 1 31.5319 1 29.875C1 28.2181 2.34315 26.875 4 26.875C5.65685 26.875 7 28.2181 7 29.875Z" fill="#85C8F8"/>
</svg>
